<?xml version="1.0" encoding="UTF-8" standalone="no"?>
<!DOCTYPE svg PUBLIC "-//W3C//DTD SVG 1.1//EN"
 "http://www.w3.org/Graphics/SVG/1.1/DTD/svg11.dtd">
<!-- Generated by graphviz version 2.26.3 (20100126.1600)
 -->
<!-- Title: G Pages: 1 -->
<svg width="638pt" height="188pt"
 viewBox="0.00 0.00 638.00 188.00" xmlns="http://www.w3.org/2000/svg" xmlns:xlink="http://www.w3.org/1999/xlink">
<g id="graph1" class="graph" transform="scale(1 1) rotate(0) translate(4 184)">
<title>G</title>
<polygon fill="white" stroke="white" points="-4,5 -4,-184 635,-184 635,5 -4,5"/>
<!-- n11 -->
<g id="node1" class="node"><title>n11</title>
<polygon fill="none" stroke="black" points="342,-180 288,-180 288,-144 342,-144 342,-180"/>
<text text-anchor="middle" x="315" y="-158.4" font-family="Times Roman,serif" font-size="14.00">start</text>
</g>
<!-- n21 -->
<g id="node2" class="node"><title>n21</title>
<polygon fill="none" stroke="black" points="162,-108 108,-108 108,-72 162,-72 162,-108"/>
<text text-anchor="middle" x="135" y="-86.4" font-family="Times Roman,serif" font-size="14.00">A</text>
</g>
<!-- n11&#45;&gt;n21 -->
<g id="edge2" class="edge"><title>n11&#45;&gt;n21</title>
<path fill="none" stroke="black" d="M287.662,-151.065C256.691,-138.676 206.065,-118.426 171.679,-104.672"/>
<polygon fill="black" stroke="black" points="172.59,-101.267 162.006,-100.802 169.991,-107.766 172.59,-101.267"/>
</g>
<!-- n22 -->
<g id="node3" class="node"><title>n22</title>
<polygon fill="none" stroke="black" points="342,-108 288,-108 288,-72 342,-72 342,-108"/>
<text text-anchor="middle" x="315" y="-86.4" font-family="Times Roman,serif" font-size="14.00">B</text>
</g>
<!-- n11&#45;&gt;n22 -->
<g id="edge4" class="edge"><title>n11&#45;&gt;n22</title>
<path fill="none" stroke="black" d="M315,-143.831C315,-136.131 315,-126.974 315,-118.417"/>
<polygon fill="black" stroke="black" points="318.5,-118.413 315,-108.413 311.5,-118.413 318.5,-118.413"/>
</g>
<!-- n23 -->
<g id="node4" class="node"><title>n23</title>
<polygon fill="none" stroke="black" points="522,-108 468,-108 468,-72 522,-72 522,-108"/>
<text text-anchor="middle" x="495" y="-86.4" font-family="Times Roman,serif" font-size="14.00">C</text>
</g>
<!-- n11&#45;&gt;n23 -->
<g id="edge6" class="edge"><title>n11&#45;&gt;n23</title>
<path fill="none" stroke="black" d="M342.338,-151.065C373.309,-138.676 423.935,-118.426 458.321,-104.672"/>
<polygon fill="black" stroke="black" points="460.009,-107.766 467.994,-100.802 457.41,-101.267 460.009,-107.766"/>
</g>
<!-- n31 -->
<g id="node5" class="node"><title>n31</title>
<polygon fill="none" stroke="black" points="54,-36 2.13163e-14,-36 0,-1.77636e-14 54,-3.55271e-15 54,-36"/>
<text text-anchor="middle" x="27" y="-14.4" font-family="Times Roman,serif" font-size="14.00">AA</text>
</g>
<!-- n21&#45;&gt;n31 -->
<g id="edge8" class="edge"><title>n21&#45;&gt;n31</title>
<path fill="none" stroke="black" d="M107.747,-71.8314C94.0611,-62.7074 77.3085,-51.539 62.6173,-41.7449"/>
<polygon fill="black" stroke="black" points="64.5062,-38.7977 54.2442,-36.1628 60.6233,-44.6221 64.5062,-38.7977"/>
</g>
<!-- n32 -->
<g id="node6" class="node"><title>n32</title>
<polygon fill="none" stroke="black" points="126,-36 72,-36 72,-1.77636e-14 126,-3.55271e-15 126,-36"/>
<text text-anchor="middle" x="99" y="-14.4" font-family="Times Roman,serif" font-size="14.00">AB</text>
</g>
<!-- n21&#45;&gt;n32 -->
<g id="edge10" class="edge"><title>n21&#45;&gt;n32</title>
<path fill="none" stroke="black" d="M125.916,-71.8314C121.939,-63.8771 117.185,-54.369 112.786,-45.5723"/>
<polygon fill="black" stroke="black" points="115.809,-43.7923 108.207,-36.4133 109.548,-46.9228 115.809,-43.7923"/>
</g>
<!-- n33 -->
<g id="node7" class="node"><title>n33</title>
<polygon fill="none" stroke="black" points="198,-36 144,-36 144,-1.77636e-14 198,-3.55271e-15 198,-36"/>
<text text-anchor="middle" x="171" y="-14.4" font-family="Times Roman,serif" font-size="14.00">AC</text>
</g>
<!-- n21&#45;&gt;n33 -->
<g id="edge12" class="edge"><title>n21&#45;&gt;n33</title>
<path fill="none" stroke="black" d="M144.084,-71.8314C148.061,-63.8771 152.815,-54.369 157.214,-45.5723"/>
<polygon fill="black" stroke="black" points="160.452,-46.9228 161.793,-36.4133 154.191,-43.7923 160.452,-46.9228"/>
</g>
<!-- n34 -->
<g id="node8" class="node"><title>n34</title>
<polygon fill="none" stroke="black" points="270,-36 216,-36 216,-1.77636e-14 270,-3.55271e-15 270,-36"/>
<text text-anchor="middle" x="243" y="-14.4" font-family="Times Roman,serif" font-size="14.00">BA</text>
</g>
<!-- n22&#45;&gt;n34 -->
<g id="edge14" class="edge"><title>n22&#45;&gt;n34</title>
<path fill="none" stroke="black" d="M296.831,-71.8314C288.285,-63.2848 277.944,-52.9443 268.62,-43.6198"/>
<polygon fill="black" stroke="black" points="270.959,-41.0095 261.413,-36.4133 266.009,-45.9592 270.959,-41.0095"/>
</g>
<!-- n35 -->
<g id="node9" class="node"><title>n35</title>
<polygon fill="none" stroke="black" points="342,-36 288,-36 288,-1.77636e-14 342,-3.55271e-15 342,-36"/>
<text text-anchor="middle" x="315" y="-14.4" font-family="Times Roman,serif" font-size="14.00">BB</text>
</g>
<!-- n22&#45;&gt;n35 -->
<g id="edge16" class="edge"><title>n22&#45;&gt;n35</title>
<path fill="none" stroke="black" d="M315,-71.8314C315,-64.131 315,-54.9743 315,-46.4166"/>
<polygon fill="black" stroke="black" points="318.5,-46.4132 315,-36.4133 311.5,-46.4133 318.5,-46.4132"/>
</g>
<!-- n36 -->
<g id="node10" class="node"><title>n36</title>
<polygon fill="none" stroke="black" points="414,-36 360,-36 360,-1.77636e-14 414,-3.55271e-15 414,-36"/>
<text text-anchor="middle" x="387" y="-14.4" font-family="Times Roman,serif" font-size="14.00">BC</text>
</g>
<!-- n22&#45;&gt;n36 -->
<g id="edge18" class="edge"><title>n22&#45;&gt;n36</title>
<path fill="none" stroke="black" d="M333.169,-71.8314C341.715,-63.2848 352.056,-52.9443 361.38,-43.6198"/>
<polygon fill="black" stroke="black" points="363.991,-45.9592 368.587,-36.4133 359.041,-41.0095 363.991,-45.9592"/>
</g>
<!-- n37 -->
<g id="node11" class="node"><title>n37</title>
<polygon fill="none" stroke="black" points="486,-36 432,-36 432,-1.77636e-14 486,-3.55271e-15 486,-36"/>
<text text-anchor="middle" x="459" y="-14.4" font-family="Times Roman,serif" font-size="14.00">CA</text>
</g>
<!-- n23&#45;&gt;n37 -->
<g id="edge20" class="edge"><title>n23&#45;&gt;n37</title>
<path fill="none" stroke="black" d="M485.916,-71.8314C481.939,-63.8771 477.185,-54.369 472.786,-45.5723"/>
<polygon fill="black" stroke="black" points="475.809,-43.7923 468.207,-36.4133 469.548,-46.9228 475.809,-43.7923"/>
</g>
<!-- n38 -->
<g id="node12" class="node"><title>n38</title>
<polygon fill="none" stroke="black" points="558,-36 504,-36 504,-1.77636e-14 558,-3.55271e-15 558,-36"/>
<text text-anchor="middle" x="531" y="-14.4" font-family="Times Roman,serif" font-size="14.00">CB</text>
</g>
<!-- n23&#45;&gt;n38 -->
<g id="edge22" class="edge"><title>n23&#45;&gt;n38</title>
<path fill="none" stroke="black" d="M504.084,-71.8314C508.061,-63.8771 512.815,-54.369 517.214,-45.5723"/>
<polygon fill="black" stroke="black" points="520.452,-46.9228 521.793,-36.4133 514.191,-43.7923 520.452,-46.9228"/>
</g>
<!-- n39 -->
<g id="node13" class="node"><title>n39</title>
<polygon fill="none" stroke="black" points="630,-36 576,-36 576,-1.77636e-14 630,-3.55271e-15 630,-36"/>
<text text-anchor="middle" x="603" y="-14.4" font-family="Times Roman,serif" font-size="14.00">CC</text>
</g>
<!-- n23&#45;&gt;n39 -->
<g id="edge24" class="edge"><title>n23&#45;&gt;n39</title>
<path fill="none" stroke="black" d="M522.253,-71.8314C535.939,-62.7074 552.691,-51.539 567.383,-41.7449"/>
<polygon fill="black" stroke="black" points="569.377,-44.6221 575.756,-36.1628 565.494,-38.7977 569.377,-44.6221"/>
</g>
</g>
</svg>
