<?xml version="1.0" encoding="UTF-8" standalone="no"?>
<!DOCTYPE svg PUBLIC "-//W3C//DTD SVG 1.1//EN"
 "http://www.w3.org/Graphics/SVG/1.1/DTD/svg11.dtd">
<!-- Generated by graphviz version 2.26.3 (20100126.1600)
 -->
<!-- Title: G Pages: 1 -->
<svg width="572pt" height="188pt"
 viewBox="0.00 0.00 572.00 188.00" xmlns="http://www.w3.org/2000/svg" xmlns:xlink="http://www.w3.org/1999/xlink">
<g id="graph1" class="graph" transform="scale(1 1) rotate(0) translate(4 184)">
<title>G</title>
<polygon fill="white" stroke="white" points="-4,5 -4,-184 569,-184 569,5 -4,5"/>
<!-- n11 -->
<g id="node1" class="node"><title>n11</title>
<polygon fill="none" stroke="black" points="276,-180 222,-180 222,-144 276,-144 276,-180"/>
<text text-anchor="middle" x="249" y="-158.4" font-family="Times Roman,serif" font-size="14.00">start</text>
</g>
<!-- n21 -->
<g id="node2" class="node"><title>n21</title>
<polygon fill="none" stroke="black" points="164,-108 110,-108 110,-72 164,-72 164,-108"/>
<text text-anchor="middle" x="137" y="-86.4" font-family="Times Roman,serif" font-size="14.00">A</text>
</g>
<!-- n11&#45;&gt;n21 -->
<g id="edge2" class="edge"><title>n11&#45;&gt;n21</title>
<path fill="none" stroke="black" d="M221.888,-144.571C207.139,-135.09 188.71,-123.242 172.794,-113.011"/>
<polygon fill="black" stroke="black" points="174.555,-109.982 164.251,-107.518 170.77,-115.87 174.555,-109.982"/>
</g>
<!-- n22 -->
<g id="node3" class="node"><title>n22</title>
<polygon fill="none" stroke="black" points="276,-108 222,-108 222,-72 276,-72 276,-108"/>
<text text-anchor="middle" x="249" y="-86.4" font-family="Times Roman,serif" font-size="14.00">B</text>
</g>
<!-- n11&#45;&gt;n22 -->
<g id="edge4" class="edge"><title>n11&#45;&gt;n22</title>
<path fill="none" stroke="black" d="M249,-143.831C249,-136.131 249,-126.974 249,-118.417"/>
<polygon fill="black" stroke="black" points="252.5,-118.413 249,-108.413 245.5,-118.413 252.5,-118.413"/>
</g>
<!-- n23 -->
<g id="node4" class="node"><title>n23</title>
<polygon fill="none" stroke="black" points="456,-108 402,-108 402,-72 456,-72 456,-108"/>
<text text-anchor="middle" x="429" y="-86.4" font-family="Times Roman,serif" font-size="14.00">C</text>
</g>
<!-- n11&#45;&gt;n23 -->
<g id="edge6" class="edge"><title>n11&#45;&gt;n23</title>
<path fill="none" stroke="black" d="M276.338,-151.065C307.309,-138.676 357.935,-118.426 392.321,-104.672"/>
<polygon fill="black" stroke="black" points="394.009,-107.766 401.994,-100.802 391.41,-101.267 394.009,-107.766"/>
</g>
<!-- n31 -->
<g id="node5" class="node"><title>n31</title>
<polygon fill="none" stroke="black" points="54,-36 2.13163e-14,-36 0,-1.77636e-14 54,-3.55271e-15 54,-36"/>
<text text-anchor="middle" x="27" y="-14.4" font-family="Times Roman,serif" font-size="14.00">AA</text>
</g>
<!-- n21&#45;&gt;n31 -->
<g id="edge8" class="edge"><title>n21&#45;&gt;n31</title>
<path fill="none" stroke="black" d="M109.809,-72.2022C95.6622,-62.9425 78.1843,-51.5025 62.937,-41.5224"/>
<polygon fill="black" stroke="black" points="64.5433,-38.3907 54.2594,-35.8425 60.7097,-44.2476 64.5433,-38.3907"/>
</g>
<!-- n32 -->
<g id="node6" class="node"><title>n32</title>
<polygon fill="none" stroke="black" stroke-width="2" points="204,-36 144,-36 144,-1.77636e-14 204,-3.55271e-15 204,-36"/>
<text text-anchor="middle" x="174" y="-14.4" font-family="Times Roman,serif" font-size="14.00">AB|BA</text>
</g>
<!-- n21&#45;&gt;n32 -->
<g id="edge10" class="edge"><title>n21&#45;&gt;n32</title>
<path fill="none" stroke="black" d="M146.337,-71.8314C150.424,-63.8771 155.31,-54.369 159.831,-45.5723"/>
<polygon fill="black" stroke="black" points="163.08,-46.9074 164.538,-36.4133 156.854,-43.7078 163.08,-46.9074"/>
</g>
<!-- n33 -->
<g id="node7" class="node"><title>n33</title>
<polygon fill="none" stroke="black" points="126,-36 72,-36 72,-1.77636e-14 126,-3.55271e-15 126,-36"/>
<text text-anchor="middle" x="99" y="-14.4" font-family="Times Roman,serif" font-size="14.00">AC</text>
</g>
<!-- n21&#45;&gt;n33 -->
<g id="edge12" class="edge"><title>n21&#45;&gt;n33</title>
<path fill="none" stroke="black" d="M127.411,-71.8314C123.168,-63.7925 118.088,-54.1666 113.404,-45.2918"/>
<polygon fill="black" stroke="black" points="116.481,-43.6235 108.718,-36.4133 110.29,-46.8908 116.481,-43.6235"/>
</g>
<!-- n22&#45;&gt;n32 -->
<g id="edge14" class="edge"><title>n22&#45;&gt;n32</title>
<path fill="none" stroke="black" d="M230.074,-71.8314C221.014,-63.1337 210.019,-52.5783 200.173,-43.1265"/>
<polygon fill="black" stroke="black" points="202.557,-40.5633 192.92,-36.1628 197.71,-45.613 202.557,-40.5633"/>
</g>
<!-- n35 -->
<g id="node8" class="node"><title>n35</title>
<polygon fill="none" stroke="black" points="276,-36 222,-36 222,-1.77636e-14 276,-3.55271e-15 276,-36"/>
<text text-anchor="middle" x="249" y="-14.4" font-family="Times Roman,serif" font-size="14.00">BB</text>
</g>
<!-- n22&#45;&gt;n35 -->
<g id="edge16" class="edge"><title>n22&#45;&gt;n35</title>
<path fill="none" stroke="black" d="M249,-71.8314C249,-64.131 249,-54.9743 249,-46.4166"/>
<polygon fill="black" stroke="black" points="252.5,-46.4132 249,-36.4133 245.5,-46.4133 252.5,-46.4132"/>
</g>
<!-- n36 -->
<g id="node9" class="node"><title>n36</title>
<polygon fill="none" stroke="black" points="348,-36 294,-36 294,-1.77636e-14 348,-3.55271e-15 348,-36"/>
<text text-anchor="middle" x="321" y="-14.4" font-family="Times Roman,serif" font-size="14.00">BC</text>
</g>
<!-- n22&#45;&gt;n36 -->
<g id="edge18" class="edge"><title>n22&#45;&gt;n36</title>
<path fill="none" stroke="black" d="M267.169,-71.8314C275.715,-63.2848 286.056,-52.9443 295.38,-43.6198"/>
<polygon fill="black" stroke="black" points="297.991,-45.9592 302.587,-36.4133 293.041,-41.0095 297.991,-45.9592"/>
</g>
<!-- n37 -->
<g id="node10" class="node"><title>n37</title>
<polygon fill="none" stroke="black" points="420,-36 366,-36 366,-1.77636e-14 420,-3.55271e-15 420,-36"/>
<text text-anchor="middle" x="393" y="-14.4" font-family="Times Roman,serif" font-size="14.00">CA</text>
</g>
<!-- n23&#45;&gt;n37 -->
<g id="edge20" class="edge"><title>n23&#45;&gt;n37</title>
<path fill="none" stroke="black" d="M419.916,-71.8314C415.939,-63.8771 411.185,-54.369 406.786,-45.5723"/>
<polygon fill="black" stroke="black" points="409.809,-43.7923 402.207,-36.4133 403.548,-46.9228 409.809,-43.7923"/>
</g>
<!-- n38 -->
<g id="node11" class="node"><title>n38</title>
<polygon fill="none" stroke="black" points="492,-36 438,-36 438,-1.77636e-14 492,-3.55271e-15 492,-36"/>
<text text-anchor="middle" x="465" y="-14.4" font-family="Times Roman,serif" font-size="14.00">CB</text>
</g>
<!-- n23&#45;&gt;n38 -->
<g id="edge22" class="edge"><title>n23&#45;&gt;n38</title>
<path fill="none" stroke="black" d="M438.084,-71.8314C442.061,-63.8771 446.815,-54.369 451.214,-45.5723"/>
<polygon fill="black" stroke="black" points="454.452,-46.9228 455.793,-36.4133 448.191,-43.7923 454.452,-46.9228"/>
</g>
<!-- n39 -->
<g id="node12" class="node"><title>n39</title>
<polygon fill="none" stroke="black" points="564,-36 510,-36 510,-1.77636e-14 564,-3.55271e-15 564,-36"/>
<text text-anchor="middle" x="537" y="-14.4" font-family="Times Roman,serif" font-size="14.00">CC</text>
</g>
<!-- n23&#45;&gt;n39 -->
<g id="edge24" class="edge"><title>n23&#45;&gt;n39</title>
<path fill="none" stroke="black" d="M456.253,-71.8314C469.939,-62.7074 486.691,-51.539 501.383,-41.7449"/>
<polygon fill="black" stroke="black" points="503.377,-44.6221 509.756,-36.1628 499.494,-38.7977 503.377,-44.6221"/>
</g>
</g>
</svg>
