<?xml version="1.0" encoding="UTF-8" standalone="no"?>
<!DOCTYPE svg PUBLIC "-//W3C//DTD SVG 1.1//EN"
 "http://www.w3.org/Graphics/SVG/1.1/DTD/svg11.dtd">
<!-- Generated by graphviz version 2.26.3 (20100126.1600)
 -->
<!-- Title: G Pages: 1 -->
<svg width="520pt" height="260pt"
 viewBox="0.00 0.00 520.00 260.00" xmlns="http://www.w3.org/2000/svg" xmlns:xlink="http://www.w3.org/1999/xlink">
<g id="graph1" class="graph" transform="scale(1 1) rotate(0) translate(4 256)">
<title>G</title>
<polygon fill="white" stroke="white" points="-4,5 -4,-256 517,-256 517,5 -4,5"/>
<!-- d11 -->
<g id="node1" class="node"><title>d11</title>
<polygon fill="none" stroke="black" points="512,-36 402,-36 402,-1.77636e-14 512,-3.55271e-15 512,-36"/>
<text text-anchor="middle" x="457" y="-14.4" font-family="Times Roman,serif" font-size="14.00">[3] A &#45; B = &#45;3</text>
</g>
<!-- d22 -->
<g id="node2" class="node"><title>d22</title>
<polygon fill="none" stroke="black" points="384,-36 274,-36 274,-1.77636e-14 384,-3.55271e-15 384,-36"/>
<text text-anchor="middle" x="329" y="-14.4" font-family="Times Roman,serif" font-size="14.00">[2] A &#45; B = &#45;2</text>
</g>
<!-- d33 -->
<g id="node3" class="node"><title>d33</title>
<polygon fill="none" stroke="black" points="256,-36 128,-36 128,-1.77636e-14 256,-3.55271e-15 256,-36"/>
<text text-anchor="middle" x="192" y="-14.4" font-family="Times Roman,serif" font-size="14.00">[10] A &#45; B = &#45;10</text>
</g>
<!-- d44 -->
<g id="node4" class="node"><title>d44</title>
<polygon fill="none" stroke="black" points="110,-36 4.26326e-14,-36 0,-1.77636e-14 110,-3.55271e-15 110,-36"/>
<text text-anchor="middle" x="55" y="-14.4" font-family="Times Roman,serif" font-size="14.00">[4] A &#45; B = &#45;4</text>
</g>
<!-- d12 -->
<g id="node5" class="node"><title>d12</title>
<polygon fill="none" stroke="black" points="491,-108 373,-108 373,-72 491,-72 491,-108"/>
<text text-anchor="middle" x="432" y="-86.4" font-family="Times Roman,serif" font-size="14.00">[3 2] A &#45; B = 1</text>
</g>
<!-- d12&#45;&gt;d11 -->
<g id="edge10" class="edge"><title>d12&#45;&gt;d11</title>
<path fill="none" stroke="black" d="M438.309,-71.8314C441.012,-64.0463 444.232,-54.7729 447.231,-46.1347"/>
<polygon fill="black" stroke="black" points="450.633,-47.0081 450.607,-36.4133 444.02,-44.7119 450.633,-47.0081"/>
</g>
<!-- d12&#45;&gt;d22 -->
<g id="edge12" class="edge"><title>d12&#45;&gt;d22</title>
<path fill="none" stroke="black" d="M406.009,-71.8314C393.078,-62.7927 377.278,-51.7476 363.362,-42.0198"/>
<polygon fill="black" stroke="black" points="365.184,-39.0235 354.983,-36.1628 361.174,-44.7608 365.184,-39.0235"/>
</g>
<!-- d23 -->
<g id="node6" class="node"><title>d23</title>
<polygon fill="none" stroke="black" points="334,-108 208,-108 208,-72 334,-72 334,-108"/>
<text text-anchor="middle" x="271" y="-86.4" font-family="Times Roman,serif" font-size="14.00">[2 10] A &#45; B = 8</text>
</g>
<!-- d23&#45;&gt;d22 -->
<g id="edge14" class="edge"><title>d23&#45;&gt;d22</title>
<path fill="none" stroke="black" d="M285.636,-71.8314C292.316,-63.5386 300.357,-53.557 307.69,-44.4533"/>
<polygon fill="black" stroke="black" points="310.619,-46.3965 314.167,-36.4133 305.168,-42.0052 310.619,-46.3965"/>
</g>
<!-- d23&#45;&gt;d33 -->
<g id="edge16" class="edge"><title>d23&#45;&gt;d33</title>
<path fill="none" stroke="black" d="M251.065,-71.8314C241.522,-63.1337 229.94,-52.5783 219.569,-43.1265"/>
<polygon fill="black" stroke="black" points="221.677,-40.3121 211.929,-36.1628 216.962,-45.4857 221.677,-40.3121"/>
</g>
<!-- d34 -->
<g id="node7" class="node"><title>d34</title>
<polygon fill="none" stroke="black" points="142,-108 16,-108 16,-72 142,-72 142,-108"/>
<text text-anchor="middle" x="79" y="-86.4" font-family="Times Roman,serif" font-size="14.00">[10 4] A &#45; B = 6</text>
</g>
<!-- d34&#45;&gt;d33 -->
<g id="edge18" class="edge"><title>d34&#45;&gt;d33</title>
<path fill="none" stroke="black" d="M107.515,-71.8314C121.834,-62.7074 139.362,-51.539 154.734,-41.7449"/>
<polygon fill="black" stroke="black" points="156.942,-44.4882 163.494,-36.1628 153.18,-38.5847 156.942,-44.4882"/>
</g>
<!-- d34&#45;&gt;d44 -->
<g id="edge20" class="edge"><title>d34&#45;&gt;d44</title>
<path fill="none" stroke="black" d="M72.9438,-71.8314C70.3488,-64.0463 67.2576,-54.7729 64.3782,-46.1347"/>
<polygon fill="black" stroke="black" points="67.6205,-44.7933 61.1378,-36.4133 60.9797,-47.0069 67.6205,-44.7933"/>
</g>
<!-- d13 -->
<g id="node8" class="node"><title>d13</title>
<polygon fill="none" stroke="black" points="505,-180 359,-180 359,-144 505,-144 505,-180"/>
<text text-anchor="middle" x="432" y="-158.4" font-family="Times Roman,serif" font-size="14.00">[3 2 10] A &#45; B = &#45;9</text>
</g>
<!-- d13&#45;&gt;d12 -->
<g id="edge8" class="edge"><title>d13&#45;&gt;d12</title>
<path fill="none" stroke="black" d="M432,-143.831C432,-136.131 432,-126.974 432,-118.417"/>
<polygon fill="black" stroke="black" points="435.5,-118.413 432,-108.413 428.5,-118.413 435.5,-118.413"/>
</g>
<!-- d24 -->
<g id="node9" class="node"><title>d24</title>
<polygon fill="none" stroke="black" points="341,-180 201,-180 201,-144 341,-144 341,-180"/>
<text text-anchor="middle" x="271" y="-158.4" font-family="Times Roman,serif" font-size="14.00">[2 10 4] A &#45; B = 4</text>
</g>
<!-- d24&#45;&gt;d23 -->
<g id="edge6" class="edge"><title>d24&#45;&gt;d23</title>
<path fill="none" stroke="black" d="M271,-143.831C271,-136.131 271,-126.974 271,-118.417"/>
<polygon fill="black" stroke="black" points="274.5,-118.413 271,-108.413 267.5,-118.413 274.5,-118.413"/>
</g>
<!-- d14 -->
<g id="node10" class="node"><title>d14</title>
<polygon fill="none" stroke="black" points="428,-252 274,-252 274,-216 428,-216 428,-252"/>
<text text-anchor="middle" x="351" y="-230.4" font-family="Times Roman,serif" font-size="14.00">[3 2 10 4] A &#45; B = 7</text>
</g>
<!-- d14&#45;&gt;d13 -->
<g id="edge4" class="edge"><title>d14&#45;&gt;d13</title>
<path fill="none" stroke="black" d="M371.44,-215.831C381.32,-207.048 393.332,-196.371 404.045,-186.849"/>
<polygon fill="black" stroke="black" points="406.418,-189.422 411.567,-180.163 401.767,-184.191 406.418,-189.422"/>
</g>
<!-- d14&#45;&gt;d24 -->
<g id="edge2" class="edge"><title>d14&#45;&gt;d24</title>
<path fill="none" stroke="black" d="M330.813,-215.831C321.149,-207.134 309.42,-196.578 298.918,-187.127"/>
<polygon fill="black" stroke="black" points="300.955,-184.251 291.181,-180.163 296.272,-189.454 300.955,-184.251"/>
</g>
</g>
</svg>
